<?xml version="1.0" standalone="no"?>
<!DOCTYPE svg PUBLIC "-//W3C//DTD SVG 1.1//EN" "http://www.w3.org/Graphics/SVG/1.1/DTD/svg11.dtd" >
<svg>
<metadata>
Created by FontForge 20120731 at Sat Nov 11 18:34:49 2023
 By www
(c) 2009-2019 Jayvee Enaguas (HarvettFox96) &#60;harvettfox96@protonmail.com&#62;. Released under a libre/free public domain licence as Creative Commons Zero (CC0) 1.0. Applies worldwide countries including the Philippines, Spain, etc.
</metadata>
<defs>
<font id="ModernDOS8x16" horiz-adv-x="800" >
  <font-face 
    font-family="Modern DOS 8x16"
    font-weight="400"
    font-stretch="normal"
    units-per-em="1600"
    panose-1="2 1 5 9 1 1 1 1 1 1"
    ascent="1200"
    descent="-400"
    x-height="700"
    cap-height="1000"
    bbox="0 -400 800 1200"
    underline-thickness="100"
    underline-position="-150"
    unicode-range="U+0020-E0B3"
  />
<missing-glyph 
d="M100 800h500v-700h-500v700z" />
    <glyph glyph-name=".notdef" 
d="M100 800h500v-700h-500v700z" />
    <glyph glyph-name=".null" horiz-adv-x="0" 
 />
    <glyph glyph-name="nonmarkingreturn" 
 />
    <glyph glyph-name="space" unicode=" " 
 />
    <glyph glyph-name="exclam" unicode="!" 
d="M300 1000h200v-100h100v-300h-100v-300h-200v300h-100v300h100v100zM300 200h200v-200h-200v200z" />
    <glyph glyph-name="quotedbl" unicode="&#x22;" 
d="M100 1100h200v-400h-100v200h-100v200zM500 1100h200v-400h-100v200h-100v200z" />
    <glyph glyph-name="numbersign" unicode="#" 
d="M400 500h-100v-200h100v200zM100 800h200v-200h100v200h200v-200h100v-100h-100v-200h100v-100h-100v-200h-200v200h-100v-200h-200v200h-100v100h100v200h-100v100h100v200z" />
    <glyph glyph-name="dollar" unicode="$" 
d="M300 800h-100v-200h100v200zM500 300h-100v-200h100v200zM300 1100h100v-200h200v-100h100v-200h-200v200h-100v-300h100v-100h100v-100h100v-200h-100v-100h-200v-200h-100v200h-200v100h-100v200h200v-200h100v300h-100v100h-100v100h-100v200h100v100h200v200z" />
    <glyph glyph-name="percent" unicode="%" 
d="M100 1000h200v-100h-200v100zM0 900h100v-200h-100v200zM300 900h100v-200h-100v200zM100 700h200v-100h-200v100zM600 900h100v-200h-100v-100h-100v-100h-100v-100h-100v-100h-100v-100h-100v-100h-100v200h100v100h100v100h100v100h100v100h100v100h100v100zM400 400
h200v-100h-200v100zM300 300h100v-200h-100v200zM600 300h100v-200h-100v200zM400 100h200v-100h-200v100z" />
    <glyph glyph-name="ampersand" unicode="&#x26;" 
d="M400 900h-100v-200h100v200zM200 1000h300v-100h100v-200h-100v-100h-100v-200h100v100h200v-100h-100v-300h100v-100h-200v100h-100v200h-100v100h-100v-300h200v-100h-300v100h-100v300h100v100h100v200h-100v200h100v100z" />
    <glyph glyph-name="quotesingle" unicode="'" 
d="M300 1100h200v-300h-100v100h-100v200zM300 800h100v-100h-100v100z" />
    <glyph glyph-name="parenleft" unicode="(" 
d="M400 1000h200v-100h-100v-100h-100v-600h100v-100h100v-100h-200v100h-100v100h-100v600h100v100h100v100z" />
    <glyph glyph-name="parenright" unicode=")" 
d="M200 1000h200v-100h100v-100h100v-600h-100v-100h-100v-100h-200v100h100v100h100v600h-100v100h-100v100z" />
    <glyph glyph-name="asterisk" unicode="*" 
d="M100 700h200v-100h200v100h200v-100h-100v-100h200v-100h-200v-100h100v-100h-200v100h-200v-100h-200v100h100v100h-200v100h200v100h-100v100z" />
    <glyph glyph-name="plus" unicode="+" 
d="M300 700h200v-200h200v-100h-200v-200h-200v200h-200v100h200v200z" />
    <glyph glyph-name="comma" unicode="," 
d="M200 200h200v-300h-100v100h-100v200zM200 -100h100v-100h-100v100z" />
    <glyph glyph-name="hyphen" unicode="-" 
d="M0 500h700v-100h-700v100z" />
    <glyph glyph-name="period" unicode="." 
d="M200 200h200v-200h-200v200z" />
    <glyph glyph-name="slash" unicode="/" 
d="M600 900h100v-200h-100v-100h-100v-100h-100v-100h-100v-100h-100v-100h-100v-100h-100v200h100v100h100v100h100v100h100v100h100v100h100v100z" />
    <glyph glyph-name="zero" unicode="0" 
d="M500 900h-300v-400h100v100h100v100h100v200zM500 500h-100v-100h-100v-100h-100v-200h300v400zM100 1000h500v-100h100v-800h-100v-100h-500v100h-100v800h100v100z" />
    <glyph glyph-name="one" unicode="1" 
d="M300 1000h200v-900h200v-100h-600v100h200v600h-200v100h100v100h100v100z" />
    <glyph glyph-name="two" unicode="2" 
d="M100 1000h500v-100h100v-200h-100v-100h-100v-100h-100v-100h-100v-100h-100v-200h300v100h200v-200h-700v300h100v100h100v100h100v100h100v100h100v200h-300v-100h-200v100h100v100z" />
    <glyph glyph-name="three" unicode="3" 
d="M100 1000h500v-100h100v-300h-100v-100h100v-400h-100v-100h-500v100h-100v100h200v-100h300v400h-300v100h300v300h-300v-100h-200v100h100v100z" />
    <glyph glyph-name="four" unicode="4" 
d="M400 1000h200v-600h100v-100h-100v-200h100v-100h-400v100h100v200h-400v300h100v100h100v100h100v100h100v100zM400 700h-100v-100h-100v-200h200v300z" />
    <glyph glyph-name="five" unicode="5" 
d="M0 1000h700v-100h-500v-300h400v-100h100v-400h-100v-100h-500v100h-100v100h200v-100h300v400h-500v500z" />
    <glyph glyph-name="six" unicode="6" 
d="M100 1000h500v-100h100v-100h-200v100h-300v-300h400v-100h100v-400h-100v-100h-500v100h-100v800h100v100zM500 500h-300v-400h300v400z" />
    <glyph glyph-name="seven" unicode="7" 
d="M0 1000h700v-400h-100v-100h-100v-100h-100v-400h-200v400h100v100h100v100h100v300h-300v-100h-200v200z" />
    <glyph glyph-name="eight" unicode="8" 
d="M500 900h-300v-300h300v300zM500 500h-300v-400h300v400zM100 1000h500v-100h100v-300h-100v-100h100v-400h-100v-100h-500v100h-100v400h100v100h-100v300h100v100z" />
    <glyph glyph-name="nine" unicode="9" 
d="M500 900h-300v-400h300v400zM100 1000h500v-100h100v-800h-100v-100h-500v100h-100v100h200v-100h300v300h-400v100h-100v400h100v100z" />
    <glyph glyph-name="colon" unicode=":" 
d="M300 800h200v-200h-200v200zM300 300h200v-200h-200v200z" />
    <glyph glyph-name="semicolon" unicode=";" 
d="M300 300h200v-300h-100v100h-100v200zM300 0h100v-100h-100v100zM300 800h200v-200h-200v200z" />
    <glyph glyph-name="less" unicode="&#x3c;" 
d="M500 900h200v-100h-100v-100h-100v-100h-100v-100h-100v-100h100v-100h100v-100h100v-100h100v-100h-200v100h-100v100h-100v100h-100v100h-100v100h100v100h100v100h100v100h100v100z" />
    <glyph glyph-name="equal" unicode="=" 
d="M100 700h600v-100h-600v100zM100 400h600v-100h-600v100z" />
    <glyph glyph-name="greater" unicode="&#x3e;" 
d="M100 900h200v-100h100v-100h100v-100h100v-100h100v-100h-100v-100h-100v-100h-100v-100h-100v-100h-200v100h100v100h100v100h100v100h100v100h-100v100h-100v100h-100v100h-100v100z" />
    <glyph glyph-name="question" unicode="?" 
d="M100 1000h500v-100h100v-300h-100v-100h-100v-200h-200v200h100v100h100v300h-300v-200h-200v200h100v100zM300 200h200v-200h-200v200z" />
    <glyph glyph-name="at" unicode="@" 
d="M200 900h400v-100h-400v100zM100 800h100v-100h-100v100zM600 800h100v-100h-100v100zM700 700h100v-400h-100v400zM0 700h100v-500h-100v500zM200 600h100v-300h100v-100h-200v400zM300 700h300v-400h100v-100h-200v100h-100v100h100v200h-200v100zM100 200h100v-100
h-100v100zM200 100h400v-100h-400v100z" />
    <glyph glyph-name="A" unicode="A" 
d="M400 900h-100v-100h-100v-300h300v300h-100v100zM200 1000h300v-100h100v-100h100v-800h-200v400h-300v-400h-200v800h100v100h100v100z" />
    <glyph glyph-name="B" unicode="B" 
d="M500 900h-200v-300h200v300zM500 500h-200v-400h200v400zM0 1000h600v-100h100v-300h-100v-100h100v-400h-100v-100h-600v100h100v800h-100v100z" />
    <glyph glyph-name="C" unicode="C" 
d="M100 1000h500v-100h100v-200h-200v200h-300v-800h300v200h200v-200h-100v-100h-500v100h-100v800h100v100z" />
    <glyph glyph-name="D" unicode="D" 
d="M500 900h-200v-800h200v800zM0 1000h600v-100h100v-800h-100v-100h-600v100h100v800h-100v100z" />
    <glyph glyph-name="E" unicode="E" 
d="M0 1000h700v-300h-100v100h-100v100h-200v-300h100v100h100v-400h-100v100h-100v-300h200v100h100v100h100v-300h-700v100h100v800h-100v100z" />
    <glyph glyph-name="F" unicode="F" 
d="M0 1000h700v-300h-100v100h-100v100h-200v-300h100v100h100v-400h-100v100h-100v-300h100v-100h-400v100h100v800h-100v100z" />
    <glyph glyph-name="G" unicode="G" 
d="M100 1000h500v-100h100v-200h-200v200h-300v-800h300v300h-100v100h300v-500h-600v100h-100v800h100v100z" />
    <glyph glyph-name="H" unicode="H" 
d="M0 1000h200v-400h300v400h200v-1000h-200v500h-300v-500h-200v1000z" />
    <glyph glyph-name="I" unicode="I" 
d="M200 1000h400v-100h-100v-800h100v-100h-400v100h100v800h-100v100z" />
    <glyph glyph-name="J" unicode="J" 
d="M300 1000h400v-100h-100v-800h-100v-100h-400v100h-100v200h200v-200h200v800h-100v100z" />
    <glyph glyph-name="K" unicode="K" 
d="M0 1000h300v-400h100v100h100v300h200v-300h-100v-100h-100v-200h100v-100h100v-300h-200v300h-100v100h-100v-400h-300v100h100v800h-100v100z" />
    <glyph glyph-name="L" unicode="L" 
d="M0 1000h400v-100h-100v-800h200v100h100v100h100v-300h-700v100h100v800h-100v100z" />
    <glyph glyph-name="M" unicode="M" 
d="M0 1000h100v-100h100v-100h100v-100h100v100h100v100h100v100h100v-1000h-200v500h-100v-100h-100v100h-100v-500h-200v1000z" />
    <glyph glyph-name="N" unicode="N" 
d="M0 1000h100v-100h100v-100h100v-100h100v-100h100v400h200v-1000h-200v300h-100v100h-100v100h-100v-500h-200v1000z" />
    <glyph glyph-name="O" unicode="O" 
d="M500 900h-300v-800h300v800zM100 1000h500v-100h100v-800h-100v-100h-500v100h-100v800h100v100z" />
    <glyph glyph-name="P" unicode="P" 
d="M500 900h-200v-400h200v400zM0 1000h600v-100h100v-400h-100v-100h-300v-300h100v-100h-400v100h100v800h-100v100z" />
    <glyph glyph-name="Q" unicode="Q" 
d="M500 900h-300v-800h100v200h100v-100h100v700zM100 1000h500v-100h100v-800h-100v-100h100v-100h-200v100h-400v100h-100v800h100v100z" />
    <glyph glyph-name="R" unicode="R" 
d="M500 900h-200v-400h200v400zM0 1000h600v-100h100v-400h-100v-200h100v-300h-200v300h-100v100h-100v-400h-300v100h100v800h-100v100z" />
    <glyph glyph-name="S" unicode="S" 
d="M100 1000h500v-100h100v-200h-200v200h-300v-200h100v-100h200v-100h100v-100h100v-300h-100v-100h-500v100h-100v200h200v-200h300v300h-100v100h-200v100h-100v100h-100v200h100v100z" />
    <glyph glyph-name="T" unicode="T" 
d="M100 1000h600v-300h-100v100h-100v-700h100v-100h-400v100h100v700h-100v-100h-100v300z" />
    <glyph glyph-name="U" unicode="U" 
d="M0 1000h200v-900h300v900h200v-900h-100v-100h-500v100h-100v900z" />
    <glyph glyph-name="V" unicode="V" 
d="M0 1000h200v-700h100v-100h100v100h100v700h200v-700h-100v-100h-100v-100h-100v-100h-100v100h-100v100h-100v100h-100v700z" />
    <glyph glyph-name="W" unicode="W" 
d="M0 1000h200v-600h100v100h100v-100h100v600h200v-1000h-100v100h-100v100h-100v100h-100v-100h-100v-100h-100v-100h-100v1000z" />
    <glyph glyph-name="X" unicode="X" 
d="M0 1000h200v-200h100v-100h100v100h100v200h200v-200h-100v-200h-100v-200h100v-200h100v-200h-200v200h-100v100h-100v-100h-100v-200h-200v200h100v200h100v200h-100v200h-100v200z" />
    <glyph glyph-name="Y" unicode="Y" 
d="M100 1000h200v-400h200v400h200v-400h-100v-100h-100v-400h100v-100h-400v100h100v400h-100v100h-100v400z" />
    <glyph glyph-name="Z" unicode="Z" 
d="M0 1000h700v-300h-100v-100h-100v-100h-100v-100h-100v-100h-100v-200h300v100h100v100h100v-300h-700v300h100v100h100v100h100v100h100v100h100v200h-300v-100h-100v-100h-100v300z" />
    <glyph glyph-name="bracketleft" unicode="[" 
d="M200 1000h400v-100h-200v-800h200v-100h-400v1000z" />
    <glyph glyph-name="backslash" unicode="\" 
d="M0 900h100v-100h100v-100h100v-100h100v-100h100v-100h100v-100h100v-200h-100v100h-100v100h-100v100h-100v100h-100v100h-100v100h-100v200z" />
    <glyph glyph-name="bracketright" unicode="]" 
d="M200 1000h400v-1000h-400v100h200v800h-200v100z" />
    <glyph glyph-name="asciicircum" unicode="^" 
d="M300 1000h100v-100h100v-100h100v-100h100v-100h-200v100h-100v100h-100v-100h-100v-100h-200v100h100v100h100v100h100v100z" />
    <glyph glyph-name="underscore" unicode="_" 
d="M0 -100h800v-100h-800v100z" />
    <glyph glyph-name="grave" unicode="`" 
d="M300 1100h200v-200h-100v-100h-100v300zM400 800h100v-100h-100v100z" />
    <glyph glyph-name="a" unicode="a" 
d="M100 700h400v-100h100v-500h100v-100h-200v100h-100v300h-200v-300h200v-100h-300v100h-100v300h100v100h300v100h-300v100z" />
    <glyph glyph-name="b" unicode="b" 
d="M0 1000h300v-300h300v-100h100v-500h-100v-100h-500v900h-100v100zM500 600h-200v-500h200v500z" />
    <glyph glyph-name="c" unicode="c" 
d="M100 700h500v-100h100v-100h-200v100h-300v-500h300v100h200v-100h-100v-100h-500v100h-100v500h100v100z" />
    <glyph glyph-name="d" unicode="d" 
d="M300 1000h300v-900h100v-100h-200v100h-100v500h-200v-500h200v-100h-300v100h-100v500h100v100h300v200h-100v100z" />
    <glyph glyph-name="e" unicode="e" 
d="M500 600h-300v-200h300v200zM100 700h500v-100h100v-300h-500v-200h300v100h200v-100h-100v-100h-500v100h-100v500h100v100z" />
    <glyph glyph-name="f" unicode="f" 
d="M300 1000h300v-100h100v-100h-200v100h-100v-200h200v-100h-200v-500h100v-100h-400v100h100v500h-100v100h100v200h100v100z" />
    <glyph glyph-name="g" unicode="g" 
d="M100 700h300v-100h-200v-500h200v500h100v100h200v-100h-100v-800h-100v-100h-400v100h-100v100h200v-100h200v200h-300v100h-100v500h100v100z" />
    <glyph glyph-name="h" unicode="h" 
d="M0 1000h300v-400h100v-100h-100v-500h-300v100h100v800h-100v100zM400 700h200v-100h100v-600h-200v600h-100v100z" />
    <glyph glyph-name="i" unicode="i" 
d="M300 1000h200v-200h-200v200zM200 700h300v-600h100v-100h-400v100h100v500h-100v100z" />
    <glyph glyph-name="j" unicode="j" 
d="M400 1000h200v-200h-200v200zM300 700h300v-900h-100v-100h-400v100h-100v200h200v-200h200v800h-100v100z" />
    <glyph glyph-name="k" unicode="k" 
d="M0 1000h300v-500h100v100h100v100h200v-100h-100v-100h-100v-200h100v-100h100v-200h-200v200h-100v100h-100v-300h-300v100h100v800h-100v100z" />
    <glyph glyph-name="l" unicode="l" 
d="M200 1000h300v-900h100v-100h-400v100h100v800h-100v100z" />
    <glyph glyph-name="m" unicode="m" 
d="M0 700h300v-100h100v100h200v-100h100v-600h-200v500h-100v-400h-100v400h-100v-500h-200v700z" />
    <glyph glyph-name="n" unicode="n" 
d="M0 700h200v-100h100v-600h-200v600h-100v100zM300 700h300v-100h100v-600h-200v600h-200v100z" />
    <glyph glyph-name="o" unicode="o" 
d="M500 600h-300v-500h300v500zM100 700h500v-100h100v-500h-100v-100h-500v100h-100v500h100v100z" />
    <glyph glyph-name="p" unicode="p" 
d="M0 700h200v-100h100v-500h200v500h-200v100h300v-100h100v-500h-100v-100h-300v-200h100v-100h-400v100h100v800h-100v100z" />
    <glyph glyph-name="q" unicode="q" 
d="M400 600h-200v-500h200v500zM100 700h500v-900h100v-100h-400v100h100v200h-300v100h-100v500h100v100z" />
    <glyph glyph-name="r" unicode="r" 
d="M0 700h200v-100h100v100h400v-200h-200v100h-100v-100h-100v-400h100v-100h-400v100h100v500h-100v100z" />
    <glyph glyph-name="s" unicode="s" 
d="M100 700h500v-100h100v-100h-200v100h-300v-100h100v-100h200v-100h100v-100h100v-100h-100v-100h-500v100h-100v100h200v-100h300v100h-100v100h-200v100h-100v100h-100v100h100v100z" />
    <glyph glyph-name="t" unicode="t" 
d="M300 1000h100v-300h200v-100h-200v-500h100v-100h-200v100h-100v500h-200v100h200v200h100v100zM500 200h100v-100h-100v100z" />
    <glyph glyph-name="u" unicode="u" 
d="M0 700h200v-600h200v-100h-300v100h-100v600zM400 700h200v-600h100v-100h-200v100h-100v600z" />
    <glyph glyph-name="v" unicode="v" 
d="M0 700h200v-400h100v-100h100v100h100v400h200v-400h-100v-100h-100v-100h-100v-100h-100v100h-100v100h-100v100h-100v400z" />
    <glyph glyph-name="w" unicode="w" 
d="M0 700h200v-500h100v400h100v-400h100v500h200v-600h-100v-100h-200v100h-100v-100h-200v100h-100v600z" />
    <glyph glyph-name="x" unicode="x" 
d="M0 700h200v-200h100v-100h100v100h100v200h200v-200h-100v-100h-100v-100h100v-100h100v-200h-200v200h-100v100h-100v-100h-100v-200h-200v200h100v100h100v100h-100v100h-100v200z" />
    <glyph glyph-name="y" unicode="y" 
d="M0 700h200v-600h300v600h200v-800h-100v-100h-100v-100h-500v100h400v100h100v100h-400v100h-100v600z" />
    <glyph glyph-name="z" unicode="z" 
d="M0 700h700v-100h-100v-100h-100v-100h-100v-100h-100v-100h-100v-100h400v100h100v-200h-700v200h100v100h100v100h100v100h100v100h-300v-100h-100v200z" />
    <glyph glyph-name="braceleft" unicode="{" 
d="M400 1000h300v-100h-200v-300h-100v-100h100v-400h200v-100h-300v100h-100v400h-200v100h200v300h100v100z" />
    <glyph glyph-name="bar" unicode="|" 
d="M300 1000h200v-400h-200v400zM300 400h200v-400h-200v400z" />
    <glyph glyph-name="braceright" unicode="}" 
d="M100 1000h300v-100h100v-300h200v-100h-200v-400h-100v-100h-300v100h200v400h100v100h-100v300h-200v100z" />
    <glyph glyph-name="asciitilde" unicode="~" 
d="M100 1000h300v-100h100v100h200v-100h-100v-100h-300v100h-100v-100h-200v100h100v100z" />
    <glyph glyph-name="uni00A0" unicode="&#xa0;" 
 />
    <glyph glyph-name="exclamdown" unicode="&#xa1;" 
d="M500 0h-200v100h-100v300h100v300h200v-300h100v-300h-100v-100zM500 800h-200v200h200v-200z" />
    <glyph glyph-name="cent" unicode="&#xa2;" 
d="M300 700h-100v-400h100v400zM300 1000h100v-200h200v-100h100v-100h-200v100h-100v-400h100v100h200v-100h-100v-100h-200v-200h-100v200h-200v100h-100v400h100v100h200v200z" />
    <glyph glyph-name="sterling" unicode="&#xa3;" 
d="M200 1000h300v-100h100v-100h-200v100h-100v-200h100v-100h-100v-400h100v-100h200v-100h-300v100h-100v-100h-200v200h100v400h-100v100h100v200h100v100zM600 200h100v-100h-100v100z" />
    <glyph glyph-name="currency" unicode="&#xa4;" 
d="M500 600h-200v-200h200v200zM100 800h200v-100h200v100h200v-100h-100v-100h100v-200h-100v-100h100v-100h-200v100h-200v-100h-200v100h100v100h-100v200h100v100h-100v100z" />
    <glyph glyph-name="yen" unicode="&#xa5;" 
d="M100 1000h200v-300h200v300h200v-300h-100v-100h-100v-100h200v-100h-200v-100h200v-100h-200v-200h-200v200h-200v100h200v100h-200v100h200v100h-100v100h-100v300z" />
    <glyph glyph-name="brokenbar" unicode="&#xa6;" 
d="M300 1000h200v-400h-200v400zM300 400h200v-400h-200v400z" />
    <glyph glyph-name="section" unicode="&#xa7;" 
d="M400 700h-100v-100h-100v-200h100v-100h100v100h100v200h-100v100zM100 1100h500v-100h100v-100h-200v100h-300v-100h100v-100h200v-100h100v-100h100v-200h-100v-100h-100v-100h100v-100h100v-100h-100v-100h-500v100h-100v100h200v-100h300v100h-100v100h-200v100h-100
v100h-100v200h100v100h100v100h-100v100h-100v100h100v100z" />
    <glyph glyph-name="dieresis" unicode="&#xa8;" 
d="M100 1100h200v-200h-200v200zM500 1100h200v-200h-200v200z" />
    <glyph glyph-name="copyright" unicode="&#xa9;" 
d="M300 700h200v-100h-200v100zM200 600h100v-300h-100v300zM500 600h100v-100h-100v100zM500 400h100v-100h-100v100zM300 300h200v-100h-200v100zM200 900h400v-100h-400v100zM100 800h100v-100h-100v100zM600 800h100v-100h-100v100zM0 700h100v-500h-100v500zM700 700
h100v-500h-100v500zM100 200h100v-100h-100v100zM600 200h100v-100h-100v100zM200 100h400v-100h-400v100z" />
    <glyph glyph-name="ordfeminine" unicode="&#xaa;" 
d="M200 1100h300v-100h100v-300h100v-100h-200v100h-100v100h-100v-100h100v-100h-200v100h-100v100h100v100h200v100h-200v100zM100 500h600v-100h-600v100z" />
    <glyph glyph-name="guillemotleft" unicode="&#xab;" 
d="M200 700h200v-100h-100v-100h-100v-100h100v-100h100v-100h-200v100h-100v100h-100v100h100v100h100v100zM500 700h200v-100h-100v-100h-100v-100h100v-100h100v-100h-200v100h-100v100h-100v100h100v100h100v100z" />
    <glyph glyph-name="logicalnot" unicode="&#xac;" 
d="M0 500h700v-400h-200v300h-500v100z" />
    <glyph glyph-name="registered" unicode="&#xae;" 
d="M200 700h300v-100h-199l-1 -100h200v-100h-200v-200h-100v500zM500 600h100v-100h-100v100zM500 400h100v-200h-100v200zM200 900h400v-100h-400v100zM100 800h100v-100h-100v100zM600 800h100v-100h-100v100zM0 700h100v-500h-100v500zM700 700h100v-500h-100v500z
M100 200h100v-100h-100v100zM600 200h100v-100h-100v100zM200 100h400v-100h-400v100z" />
    <glyph glyph-name="degree" unicode="&#xb0;" 
d="M400 1000h-100v-200h100v200zM200 1100h300v-100h100v-200h-100v-100h-300v100h-100v200h100v100z" />
    <glyph glyph-name="plusminus" unicode="&#xb1;" 
d="M300 800h200v-200h200v-100h-200v-200h-200v200h-200v100h200v200zM0 100h800v-100h-800v100z" />
    <glyph glyph-name="uni00B2" unicode="&#xb2;" 
d="M200 1100h300v-100h100v-200h-100v-100h-100v-100h200v-100h-500v100h100v100h100v100h100v200h-200v100zM100 1000h100v-100h-100v100z" />
    <glyph glyph-name="uni00B3" unicode="&#xb3;" 
d="M200 1100h300v-100h100v-100h-100v-100h100v-200h-100v-100h-300v100h200v200h-100v100h100v100h-200v100zM100 1000h100v-100h-100v100zM100 700h100v-100h-100v100z" />
    <glyph glyph-name="acute" unicode="&#xb4;" 
d="M500 1100h200v-100h-100v-100h-200v100h100v100zM300 900h100v-100h-100v100z" />
    <glyph glyph-name="mu" unicode="&#xb5;" 
d="M0 700h200v-600h200v600h200v-600h-100v-100h-400v-200h-100v900z" />
    <glyph glyph-name="paragraph" unicode="&#xb6;" 
d="M300 900h-100v-400h100v400zM100 1000h700v-1000h-200v900h-100v-900h-200v400h-200v100h-100v400h100v100z" />
    <glyph glyph-name="periodcentered" unicode="&#xb7;" 
d="M200 400h200v-100h-200v100z" />
    <glyph glyph-name="cedilla" unicode="&#xb8;" 
d="M300 0h100v-100h-100v100zM400 -100h100v-100h-100v100zM100 -200h300v-100h-300v100z" />
    <glyph glyph-name="uni00B9" unicode="&#xb9;" 
d="M300 1100h200v-600h-200v400h-100v100h100v100z" />
    <glyph glyph-name="ordmasculine" unicode="&#xba;" 
d="M500 900h-200v-200h200v200zM200 1000h400v-100h100v-200h-100v-100h-400v100h-100v200h100v100zM100 500h600v-100h-600v100z" />
    <glyph glyph-name="guillemotright" unicode="&#xbb;" 
d="M0 700h200v-100h100v-100h100v-100h-100v-100h-100v-100h-200v100h100v100h100v100h-100v100h-100v100zM300 700h200v-100h100v-100h100v-100h-100v-100h-100v-100h-200v100h100v100h100v100h-100v100h-100v100z" />
    <glyph glyph-name="onequarter" unicode="&#xbc;" 
d="M100 1100h200v-400h100v100h100v100h100v-200h-100v-100h-100v-100h-100v-100h-100v-100h-100v-100h-100v200h100v100h100v100h-100v300h-100v100h100v100zM400 500h200v-300h100v-100h-100v-200h-200v200h-200v200h100v-100h100v100h-100v100h100v100z" />
    <glyph glyph-name="onehalf" unicode="&#xbd;" 
d="M100 1100h200v-400h100v100h100v100h100v-200h-100v-100h-100v-100h-100v-100h-100v-100h-100v-100h-100v200h100v100h100v100h-100v300h-100v100h100v100zM300 400h300v-100h100v-100h-100v-100h-100v-100h200v-100h-500v100h100v100h100v100h100v100h-100v-100h-200
v100h100v100z" />
    <glyph glyph-name="threequarters" unicode="&#xbe;" 
d="M0 1100h300v-100h100v-100h-100v-100h200v100h100v-200h-100v-100h-100v-100h-100v-100h-100v-100h-100v-100h-100v200h100v100h100v100h-200v100h200v100h-100v100h100v100h-200v100zM400 500h200v-300h100v-100h-100v-200h-200v200h-200v200h100v-100h100v100h-100v100
h100v100z" />
    <glyph glyph-name="questiondown" unicode="&#xbf;" 
d="M600 0h-500v100h-100v300h100v100h100v200h200v-200h-100v-100h-100v-300h300v200h200v-200h-100v-100zM400 800h-200v200h200v-200z" />
    <glyph glyph-name="Agrave" unicode="&#xc0;" 
d="M100 1200h200v-100h100v-100h-200v100h-100v100zM400 800h-100v-100h-100v-200h300v200h-100v100zM400 1000h100v-200h100v-100h100v-700h-200v400h-300v-400h-200v700h100v100h100v100h200v100z" />
    <glyph glyph-name="Aacute" unicode="&#xc1;" 
d="M400 1200h200v-100h-100v-100h-200v100h100v100zM400 800h-100v-100h-100v-200h300v200h-100v100zM200 1000h100v-100h200v-100h100v-100h100v-700h-200v400h-300v-400h-200v700h100v100h100v200z" />
    <glyph glyph-name="Acircumflex" unicode="&#xc2;" 
d="M300 1200h100v-100h100v-100h-300v100h100v100zM100 1000h100v-100h-100v100zM500 1000h100v-100h-100v100zM400 800h-100v-100h-100v-200h300v200h-100v100zM200 900h300v-100h100v-100h100v-700h-200v400h-300v-400h-200v700h100v100h100v100z" />
    <glyph glyph-name="Atilde" unicode="&#xc3;" 
d="M100 1200h300v-100h100v100h200v-100h-100v-100h-300v100h-100v-100h-200v100h100v100zM400 800h-100v-100h-100v-200h300v200h-100v100zM200 900h300v-100h100v-100h100v-700h-200v400h-300v-400h-200v700h100v100h100v100z" />
    <glyph glyph-name="Adieresis" unicode="&#xc4;" 
d="M0 1200h200v-200h-200v200zM500 1200h200v-200h-200v200zM400 800h-100v-100h-100v-200h300v200h-100v100zM200 900h300v-100h100v-100h100v-700h-200v400h-300v-400h-200v700h100v100h100v100z" />
    <glyph glyph-name="Aring" unicode="&#xc5;" 
d="M200 1200h300v-100h-300v100zM100 1100h100v-100h-100v100zM500 1100h100v-100h-100v100zM400 800h-100v-100h-100v-200h300v200h-100v100zM200 1000h300v-200h100v-100h100v-700h-200v400h-300v-400h-200v700h100v100h100v200z" />
    <glyph glyph-name="AE" unicode="&#xc6;" 
d="M400 900h-100v-100h-100v-300h200v400zM200 1000h500v-200h-100v100h-100v-300h100v-200h-100v-300h100v100h100v-200h-300v400h-200v-400h-200v800h100v100h100v100z" />
    <glyph glyph-name="Ccedilla" unicode="&#xc7;" 
d="M100 1000h500v-100h100v-200h-200v200h-300v-800h300v200h200v-200h-100v-100h-200v-100h-100v100h-200v100h-100v800h100v100zM400 -100h100v-100h-100v100zM100 -200h300v-100h-300v100z" />
    <glyph glyph-name="Egrave" unicode="&#xc8;" 
d="M100 1200h200v-100h100v-100h-200v100h-100v100zM400 1000h100v-100h200v-300h-100v100h-100v100h-200v-300h100v100h100v-300h-100v100h-100v-300h200v100h100v100h100v-300h-700v100h100v700h-100v100h400v100z" />
    <glyph glyph-name="Eacute" unicode="&#xc9;" 
d="M400 1200h200v-100h-100v-100h-200v100h100v100zM200 1000h100v-100h400v-300h-100v100h-100v100h-200v-300h100v100h100v-300h-100v100h-100v-300h200v100h100v100h100v-300h-700v100h100v700h-100v100h200v100z" />
    <glyph glyph-name="Ecircumflex" unicode="&#xca;" 
d="M300 1200h100v-100h100v-100h-300v100h100v100zM100 1000h100v-100h300v100h100v-100h100v-300h-100v100h-100v100h-200v-300h100v100h100v-300h-100v100h-100v-300h200v100h100v100h100v-300h-700v100h100v700h-100v100h100v100z" />
    <glyph glyph-name="Edieresis" unicode="&#xcb;" 
d="M0 1200h200v-200h-200v200zM500 1200h200v-200h-200v200zM0 900h700v-300h-100v100h-100v100h-200v-300h100v100h100v-300h-100v100h-100v-300h200v100h100v100h100v-300h-700v100h100v700h-100v100z" />
    <glyph glyph-name="Igrave" unicode="&#xcc;" 
d="M100 1200h200v-100h100v-100h-200v100h-100v100zM400 1000h100v-100h100v-100h-100v-700h100v-100h-400v100h100v700h-100v100h200v100z" />
    <glyph glyph-name="Iacute" unicode="&#xcd;" 
d="M500 1200h200v-100h-100v-100h-200v100h100v100zM300 1000h100v-100h200v-100h-100v-700h100v-100h-400v100h100v700h-100v100h100v100z" />
    <glyph glyph-name="Icircumflex" unicode="&#xce;" 
d="M300 1200h200v-100h100v-100h-400v100h100v100zM100 1000h100v-100h-100v100zM600 1000h100v-100h-100v100zM200 900h400v-100h-100v-700h100v-100h-400v100h100v700h-100v100z" />
    <glyph glyph-name="Idieresis" unicode="&#xcf;" 
d="M100 1200h200v-200h-200v200zM500 1200h200v-200h-200v200zM200 900h400v-100h-100v-700h100v-100h-400v100h100v700h-100v100z" />
    <glyph glyph-name="Eth" unicode="&#xd0;" 
d="M500 900h-200v-300h100v-100h-100v-400h200v800zM0 1000h600v-100h100v-800h-100v-100h-600v100h100v400h-100v100h100v300h-100v100z" />
    <glyph glyph-name="Ntilde" unicode="&#xd1;" 
d="M100 1200h300v-100h100v100h200v-100h-100v-100h-300v100h-100v-100h-200v100h100v100zM0 900h100v-100h100v-100h100v-100h100v-100h100v400h200v-900h-200v200h-100v100h-100v100h-100v-400h-200v900z" />
    <glyph glyph-name="Ograve" unicode="&#xd2;" 
d="M100 1200h200v-100h100v-100h-200v100h-100v100zM500 800h-300v-700h300v700zM400 1000h100v-100h100v-100h100v-700h-100v-100h-500v100h-100v700h100v100h300v100z" />
    <glyph glyph-name="Oacute" unicode="&#xd3;" 
d="M400 1200h200v-100h-100v-100h-200v100h100v100zM500 800h-300v-700h300v700zM200 1000h100v-100h300v-100h100v-700h-100v-100h-500v100h-100v700h100v100h100v100z" />
    <glyph glyph-name="Ocircumflex" unicode="&#xd4;" 
d="M300 1200h100v-100h100v-100h-300v100h100v100zM500 800h-300v-700h300v700zM100 1000h100v-100h300v100h100v-200h100v-700h-100v-100h-500v100h-100v700h100v200z" />
    <glyph glyph-name="Otilde" unicode="&#xd5;" 
d="M100 1200h300v-100h100v100h200v-100h-100v-100h-300v100h-100v-100h-200v100h100v100zM500 800h-300v-700h300v700zM100 900h500v-100h100v-700h-100v-100h-500v100h-100v700h100v100z" />
    <glyph glyph-name="Odieresis" unicode="&#xd6;" 
d="M0 1200h200v-200h-200v200zM500 1200h200v-200h-200v200zM500 800h-300v-700h300v700zM100 900h500v-100h100v-700h-100v-100h-500v100h-100v700h100v100z" />
    <glyph glyph-name="multiply" unicode="&#xd7;" 
d="M100 700h200v-100h200v100h200v-100h-100v-100h-100v-100h100v-100h100v-100h-200v100h-200v-100h-200v100h100v100h100v100h-100v100h-100v100z" />
    <glyph glyph-name="Oslash" unicode="&#xd8;" 
d="M500 900h-300v-500h100v300h100v100h100v100zM600 1200h100v-200h-100v-100h100v-800h-100v-100h-400v-100h-100v-100h-100v200h100v100h-100v800h100v100h400v100h100v100zM500 600h-100v-300h-100v-100h-100v-100h300v500z" />
    <glyph glyph-name="Ugrave" unicode="&#xd9;" 
d="M100 1200h200v-100h100v-100h-200v100h-100v100zM400 1000h100v-100h-100v100zM0 900h200v-800h300v800h200v-800h-100v-100h-500v100h-100v800z" />
    <glyph glyph-name="Uacute" unicode="&#xda;" 
d="M400 1200h200v-100h-100v-100h-200v100h100v100zM200 1000h100v-100h-100v100zM0 900h200v-800h300v800h200v-800h-100v-100h-500v100h-100v800z" />
    <glyph glyph-name="Ucircumflex" unicode="&#xdb;" 
d="M300 1200h100v-100h100v-100h-300v100h100v100zM100 1000h100v-900h300v900h100v-100h100v-800h-100v-100h-500v100h-100v800h100v100z" />
    <glyph glyph-name="Udieresis" unicode="&#xdc;" 
d="M0 1200h200v-200h-200v200zM500 1200h200v-200h-200v200zM0 900h200v-800h300v800h200v-800h-100v-100h-500v100h-100v800z" />
    <glyph glyph-name="Yacute" unicode="&#xdd;" 
d="M500 1200h200v-100h-100v-100h-200v100h100v100zM300 1000h100v-100h-100v100zM100 900h200v-400h200v400h200v-400h-100v-100h-100v-300h100v-100h-400v100h100v300h-100v100h-100v400z" />
    <glyph glyph-name="Thorn" unicode="&#xde;" 
d="M500 700h-200v-400h200v400zM0 1000h400v-100h-100v-100h300v-100h100v-400h-100v-100h-300v-100h100v-100h-400v100h100v800h-100v100z" />
    <glyph glyph-name="germandbls" unicode="&#xdf;" 
d="M100 1000h400v-100h100v-200h-100v-100h100v-100h100v-300h-100v-100h-300v100h200v300h-100v100h-100v100h100v200h-200v-1000h-100v100h-100v900h100v100z" />
    <glyph glyph-name="agrave" unicode="&#xe0;" 
d="M0 1100h200v-100h100v-100h-200v100h-100v100zM300 900h100v-100h-100v100zM100 700h400v-100h100v-500h100v-100h-200v100h-100v300h-200v-300h200v-100h-300v100h-100v300h100v100h300v100h-300v100z" />
    <glyph glyph-name="aacute" unicode="&#xe1;" 
d="M500 1100h200v-100h-100v-100h-200v100h100v100zM300 900h100v-100h-100v100zM100 700h400v-100h100v-500h100v-100h-200v100h-100v300h-200v-300h200v-100h-300v100h-100v300h100v100h300v100h-300v100z" />
    <glyph glyph-name="acircumflex" unicode="&#xe2;" 
d="M200 1100h200v-100h100v-100h100v-100h-200v100h-200v-100h-200v100h100v100h100v100zM100 700h400v-100h100v-500h100v-100h-200v100h-100v300h-200v-300h200v-100h-300v100h-100v300h100v100h300v100h-300v100z" />
    <glyph glyph-name="atilde" unicode="&#xe3;" 
d="M100 1000h300v-100h100v100h200v-100h-100v-100h-300v100h-100v-100h-200v100h100v100zM100 700h400v-100h100v-500h100v-100h-200v100h-100v300h-200v-300h200v-100h-300v100h-100v300h100v100h300v100h-300v100z" />
    <glyph glyph-name="adieresis" unicode="&#xe4;" 
d="M0 1000h200v-200h-200v200zM400 1000h200v-200h-200v200zM100 700h400v-100h100v-500h100v-100h-200v100h-100v300h-200v-300h200v-100h-300v100h-100v300h100v100h300v100h-300v100z" />
    <glyph glyph-name="aring" unicode="&#xe5;" 
d="M200 1100h200v-100h-200v100zM100 1000h100v-100h-100v100zM400 1000h100v-100h-100v100zM200 900h200v-100h-200v100zM100 700h400v-100h100v-500h100v-100h-200v100h-100v300h-200v-300h200v-100h-300v100h-100v300h100v100h300v100h-300v100z" />
    <glyph glyph-name="ae" unicode="&#xe6;" 
d="M100 700h500v-100h-200v-200h200v200h100v-300h-300v-200h200v-100h-500v100h200v300h-200v100h200v100h-200v100zM0 400h100v-300h-100v300zM600 200h100v-100h-100v100z" />
    <glyph glyph-name="ccedilla" unicode="&#xe7;" 
d="M100 700h500v-100h100v-100h-200v100h-300v-500h300v100h200v-100h-100v-100h-200v-100h-100v100h-200v100h-100v500h100v100zM400 -100h100v-100h-100v100zM100 -200h300v-100h-300v100z" />
    <glyph glyph-name="egrave" unicode="&#xe8;" 
d="M0 1100h200v-100h100v-100h-200v100h-100v100zM300 900h100v-100h-100v100zM500 600h-300v-200h300v200zM100 700h500v-100h100v-300h-500v-200h300v100h200v-100h-100v-100h-500v100h-100v500h100v100z" />
    <glyph glyph-name="eacute" unicode="&#xe9;" 
d="M500 1100h200v-100h-100v-100h-200v100h100v100zM300 900h100v-100h-100v100zM500 600h-300v-200h300v200zM100 700h500v-100h100v-300h-500v-200h300v100h200v-100h-100v-100h-500v100h-100v500h100v100z" />
    <glyph glyph-name="ecircumflex" unicode="&#xea;" 
d="M300 1100h200v-100h100v-100h100v-100h-200v100h-200v-100h-200v100h100v100h100v100zM500 600h-300v-200h300v200zM100 700h500v-100h100v-300h-500v-200h300v100h200v-100h-100v-100h-500v100h-100v500h100v100z" />
    <glyph glyph-name="edieresis" unicode="&#xeb;" 
d="M0 1000h200v-200h-200v200zM500 1000h200v-200h-200v200zM500 600h-300v-200h300v200zM100 700h500v-100h100v-300h-500v-200h300v100h200v-100h-100v-100h-500v100h-100v500h100v100z" />
    <glyph glyph-name="igrave" unicode="&#xec;" 
d="M0 1100h200v-100h100v-100h-200v100h-100v100zM300 900h100v-100h-100v100zM200 700h300v-600h100v-100h-400v100h100v500h-100v100z" />
    <glyph glyph-name="iacute" unicode="&#xed;" 
d="M500 1100h200v-100h-100v-100h-200v100h100v100zM300 900h100v-100h-100v100zM200 700h300v-600h100v-100h-400v100h100v500h-100v100z" />
    <glyph glyph-name="icircumflex" unicode="&#xee;" 
d="M300 1100h200v-100h100v-100h100v-100h-200v100h-200v-100h-200v100h100v100h100v100zM200 700h300v-600h100v-100h-400v100h100v500h-100v100z" />
    <glyph glyph-name="idieresis" unicode="&#xef;" 
d="M100 1000h200v-200h-200v200zM500 1000h200v-200h-200v200zM200 700h300v-600h100v-100h-400v100h100v500h-100v100z" />
    <glyph glyph-name="eth" unicode="&#xf0;" 
d="M300 1000h300v-200h100v-100h-100v-600h100v-100h-200v100h-100v410h-200v-410h200v-100h-300v100h-100v410h100v100h300v90h-200v100h200v100h-100v100z" />
    <glyph glyph-name="ntilde" unicode="&#xf1;" 
d="M100 1000h300v-100h100v100h200v-100h-100v-100h-300v100h-100v-100h-200v100h100v100zM0 700h200v-100h100v-600h-200v600h-100v100zM300 700h300v-100h100v-600h-200v600h-200v100z" />
    <glyph glyph-name="ograve" unicode="&#xf2;" 
d="M0 1100h200v-100h100v-100h-200v100h-100v100zM300 900h100v-100h-100v100zM500 600h-300v-500h300v500zM100 700h500v-100h100v-500h-100v-100h-500v100h-100v500h100v100z" />
    <glyph glyph-name="oacute" unicode="&#xf3;" 
d="M500 1100h200v-100h-100v-100h-200v100h100v100zM300 900h100v-100h-100v100zM500 600h-300v-500h300v500zM100 700h500v-100h100v-500h-100v-100h-500v100h-100v500h100v100z" />
    <glyph glyph-name="ocircumflex" unicode="&#xf4;" 
d="M300 1100h200v-100h100v-100h100v-100h-200v100h-200v-100h-200v100h100v100h100v100zM500 600h-300v-500h300v500zM100 700h500v-100h100v-500h-100v-100h-500v100h-100v500h100v100z" />
    <glyph glyph-name="otilde" unicode="&#xf5;" 
d="M100 1000h300v-100h100v100h200v-100h-100v-100h-300v100h-100v-100h-200v100h100v100zM500 600h-300v-500h300v500zM100 700h500v-100h100v-500h-100v-100h-500v100h-100v500h100v100z" />
    <glyph glyph-name="odieresis" unicode="&#xf6;" 
d="M0 1000h200v-200h-200v200zM500 1000h200v-200h-200v200zM500 600h-300v-500h300v500zM100 700h500v-100h100v-500h-100v-100h-500v100h-100v500h100v100z" />
    <glyph glyph-name="divide" unicode="&#xf7;" 
d="M300 800h200v-200h-200v200zM100 500h600v-100h-600v100zM300 300h200v-200h-200v200z" />
    <glyph glyph-name="oslash" unicode="&#xf8;" 
d="M400 600h-200v-300h100v200h100v100zM500 400h-100v-200h-100v-100h200v300zM600 900h100v-200h-100v-100h100v-500h-100v-100h-400v-100h-100v-100h-100v200h100v100h-100v500h100v100h400v100h100v100z" />
    <glyph glyph-name="ugrave" unicode="&#xf9;" 
d="M0 1100h200v-100h100v-100h-200v100h-100v100zM300 900h100v-100h-100v100zM0 700h200v-600h200v-100h-300v100h-100v600zM400 700h200v-600h100v-100h-200v100h-100v600z" />
    <glyph glyph-name="uacute" unicode="&#xfa;" 
d="M500 1100h200v-100h-100v-100h-200v100h100v100zM300 900h100v-100h-100v100zM0 700h200v-600h200v-100h-300v100h-100v600zM400 700h200v-600h100v-100h-200v100h-100v600z" />
    <glyph glyph-name="ucircumflex" unicode="&#xfb;" 
d="M200 1100h200v-100h100v-100h100v-100h-200v100h-200v-100h-200v100h100v100h100v100zM0 700h200v-600h200v-100h-300v100h-100v600zM400 700h200v-600h100v-100h-200v100h-100v600z" />
    <glyph glyph-name="udieresis" unicode="&#xfc;" 
d="M0 1000h200v-200h-200v200zM400 1000h200v-200h-200v200zM0 700h200v-600h200v-100h-300v100h-100v600zM400 700h200v-600h100v-100h-200v100h-100v600z" />
    <glyph glyph-name="yacute" unicode="&#xfd;" 
d="M500 1100h200v-100h-100v-100h-200v100h100v100zM300 900h100v-100h-100v100zM0 700h200v-600h300v600h200v-800h-100v-100h-100v-100h-400v100h300v100h100v100h-400v100h-100v600z" />
    <glyph glyph-name="thorn" unicode="&#xfe;" 
d="M500 600h-200v-500h200v500zM0 1000h300v-300h300v-100h100v-500h-100v-100h-300v-200h100v-100h-400v100h100v1100h-100v100z" />
    <glyph glyph-name="ydieresis" unicode="&#xff;" 
d="M0 1000h200v-200h-200v200zM500 1000h200v-200h-200v200zM0 700h200v-600h300v600h200v-800h-100v-100h-100v-100h-400v100h300v100h100v100h-400v100h-100v600z" />
    <glyph glyph-name="Ccircumflex" unicode="&#x108;" 
d="M300 1200h100v-100h100v-100h-300v100h100v100zM100 1000h100v-100h300v100h100v-200h100v-200h-200v200h-300v-700h300v200h200v-200h-100v-100h-500v100h-100v700h100v200z" />
    <glyph glyph-name="ccircumflex" unicode="&#x109;" 
d="M300 1100h200v-100h100v-100h100v-100h-200v100h-200v-100h-200v100h100v100h100v100zM100 700h500v-100h100v-100h-200v100h-300v-500h300v100h200v-100h-100v-100h-500v100h-100v500h100v100z" />
    <glyph glyph-name="Ccaron" unicode="&#x10c;" 
d="M100 1200h200v-100h100v100h200v-100h-100v-100h-100v-100h200v-100h100v-200h-200v200h-300v-700h300v200h200v-200h-100v-100h-500v100h-100v700h100v100h200v100h-100v100h-100v100z" />
    <glyph glyph-name="ccaron" unicode="&#x10d;" 
d="M100 1100h200v-100h200v100h200v-100h-100v-100h-100v-100h-200v100h-100v100h-100v100zM100 700h500v-100h100v-100h-200v100h-300v-500h300v100h200v-100h-100v-100h-500v100h-100v500h100v100z" />
    <glyph glyph-name="Dcaron" unicode="&#x10e;" 
d="M500 800h-200v-700h200v700zM100 1200h200v-100h100v100h200v-100h-100v-100h-100v-100h200v-100h100v-700h-100v-100h-600v100h100v700h-100v100h300v100h-100v100h-100v100z" />
    <glyph glyph-name="dcaron" unicode="&#x10f;" 
d="M0 1200h200v-100h200v100h200v-100h-100v-100h-100v-100h-200v100h-100v100h-100v100zM400 900h200v-800h100v-100h-200v100h-100v500h-200v-500h200v-100h-300v100h-100v500h100v100h300v200z" />
    <glyph glyph-name="Ecaron" unicode="&#x11a;" 
d="M100 1200h200v-100h100v100h200v-100h-100v-100h-100v-100h300v-300h-100v100h-100v100h-200v-300h100v100h100v-300h-100v100h-100v-300h200v100h100v100h100v-300h-700v100h100v700h-100v100h300v100h-100v100h-100v100z" />
    <glyph glyph-name="ecaron" unicode="&#x11b;" 
d="M100 1100h200v-100h200v100h200v-100h-100v-100h-100v-100h-200v100h-100v100h-100v100zM500 600h-300v-200h300v200zM100 700h500v-100h100v-300h-500v-200h300v100h200v-100h-100v-100h-500v100h-100v500h100v100z" />
    <glyph glyph-name="Gcircumflex" unicode="&#x11c;" 
d="M300 1200h100v-100h100v-100h-300v100h100v100zM100 1000h100v-100h300v100h100v-200h100v-200h-200v200h-300v-700h300v300h-100v100h300v-500h-600v100h-100v700h100v200z" />
    <glyph glyph-name="gcircumflex" unicode="&#x11d;" 
d="M200 1100h200v-100h100v-100h100v-100h-200v100h-200v-100h-200v100h100v100h100v100zM100 700h300v-100h-200v-500h200v500h100v100h200v-100h-100v-800h-100v-100h-400v100h-100v100h200v-100h200v200h-300v100h-100v500h100v100z" />
    <glyph glyph-name="Hcircumflex" unicode="&#x124;" 
d="M300 1200h100v-100h100v-100h-300v100h100v100zM0 900h200v-400h300v400h200v-900h-200v400h-300v-400h-200v900z" />
    <glyph glyph-name="hcircumflex" unicode="&#x125;" 
d="M300 1200h100v-100h100v-100h-300v100h100v100zM500 1000h100v-100h-100v100zM100 1000h100v-100h100v-300h100v-100h-100v-500h-300v100h100v700h-100v100h100v100zM400 700h200v-100h100v-600h-200v600h-100v100z" />
    <glyph glyph-name="dotlessi" unicode="&#x131;" 
d="M200 700h300v-600h100v-100h-400v100h100v500h-100v100z" />
    <glyph glyph-name="Jcircumflex" unicode="&#x134;" 
d="M400 1200h100v-100h100v-100h-300v100h100v100zM200 1000h100v-100h-100v100zM300 900h300v100h100v-200h-100v-700h-100v-100h-400v100h-100v200h200v-200h200v700h-100v100z" />
    <glyph glyph-name="jcircumflex" unicode="&#x135;" 
d="M400 1100h200v-100h100v-100h100v-100h-200v100h-200v-100h-200v100h100v100h100v100zM300 700h300v-900h-100v-100h-400v100h-100v200h200v-200h200v800h-100v100z" />
    <glyph glyph-name="Ncaron" unicode="&#x147;" 
d="M100 1200h200v-100h100v100h200v-100h-100v-100h-100v-100h-100v100h-100v100h-100v100zM0 900h100v-100h100v-100h100v-100h100v-100h100v400h200v-900h-200v200h-100v100h-100v100h-100v-400h-200v900z" />
    <glyph glyph-name="ncaron" unicode="&#x148;" 
d="M100 1100h200v-100h200v100h200v-100h-100v-100h-100v-100h-200v100h-100v100h-100v100zM0 700h200v-100h100v-600h-200v600h-100v100zM300 700h300v-100h100v-600h-200v600h-200v100z" />
    <glyph glyph-name="OE" unicode="&#x152;" 
d="M400 900h-200v-800h200v800zM100 1000h600v-200h-100v100h-100v-300h100v-200h-100v-300h100v100h100v-200h-600v100h-100v800h100v100z" />
    <glyph glyph-name="oe" unicode="&#x153;" 
d="M100 700h500v-100h-200v-200h200v200h100v-300h-300v-200h200v-100h-500v100h200v500h-200v100zM0 600h100v-500h-100v500zM600 200h100v-100h-100v100z" />
    <glyph glyph-name="Rcaron" unicode="&#x158;" 
d="M500 800h-200v-300h200v300zM100 1200h200v-100h100v100h200v-100h-100v-100h-100v-100h200v-100h100v-300h-100v-200h100v-300h-200v300h-100v100h-100v-400h-300v100h100v700h-100v100h300v100h-100v100h-100v100z" />
    <glyph glyph-name="rcaron" unicode="&#x159;" 
d="M100 1100h200v-100h200v100h200v-100h-100v-100h-100v-100h-200v100h-100v100h-100v100zM0 700h200v-100h100v100h400v-200h-200v100h-100v-100h-100v-400h100v-100h-400v100h100v500h-100v100z" />
    <glyph glyph-name="Scircumflex" unicode="&#x15c;" 
d="M300 1200h100v-100h100v-100h-300v100h100v100zM100 1000h100v-100h300v100h100v-200h100v-200h-200v200h-300v-200h100v-100h200v-100h100v-100h100v-200h-100v-100h-500v100h-100v200h200v-200h300v200h-100v100h-200v100h-100v100h-100v200h100v200z" />
    <glyph glyph-name="scircumflex" unicode="&#x15d;" 
d="M300 1100h200v-100h100v-100h100v-100h-200v100h-200v-100h-200v100h100v100h100v100zM100 700h500v-100h100v-100h-200v100h-300v-100h100v-100h200v-100h100v-100h100v-100h-100v-100h-500v100h-100v100h200v-100h300v100h-100v100h-200v100h-100v100h-100v100h100v100
z" />
    <glyph glyph-name="Scaron" unicode="&#x160;" 
d="M100 1200h200v-100h100v100h200v-100h-100v-100h-100v-100h200v-100h100v-200h-200v200h-300v-200h100v-100h200v-100h100v-100h100v-200h-100v-100h-500v100h-100v200h200v-200h300v200h-100v100h-200v100h-100v100h-100v200h100v100h200v100h-100v100h-100v100z" />
    <glyph glyph-name="scaron" unicode="&#x161;" 
d="M100 1100h200v-100h200v100h200v-100h-100v-100h-100v-100h-200v100h-100v100h-100v100zM100 700h500v-100h100v-100h-200v100h-300v-100h100v-100h200v-100h100v-100h100v-100h-100v-100h-500v100h-100v100h200v-100h300v100h-100v100h-200v100h-100v100h-100v100h100
v100z" />
    <glyph glyph-name="Tcaron" unicode="&#x164;" 
d="M100 1200h200v-100h200v100h200v-100h-100v-100h-100v-100h200v-300h-100v100h-100v-600h100v-100h-400v100h100v600h-100v-100h-100v300h200v100h-100v100h-100v100z" />
    <glyph glyph-name="tcaron" unicode="&#x165;" 
d="M500 200h100v-100h-100v100zM100 1200h200v-100h100v100h200v-100h-100v-100h-100v-300h200v-100h-200v-500h100v-100h-200v100h-100v500h-200v100h200v100h100v200h-100v100h-100v100z" />
    <glyph glyph-name="Ubreve" unicode="&#x16c;" 
d="M100 1200h200v-100h100v100h200v-100h-100v-100h-300v100h-100v100zM0 900h200v-800h300v800h200v-800h-100v-100h-500v100h-100v800z" />
    <glyph glyph-name="ubreve" unicode="&#x16d;" 
d="M0 1000h200v-100h200v100h200v-100h-100v-100h-400v100h-100v100zM0 700h200v-600h200v-100h-300v100h-100v600zM400 700h200v-600h100v-100h-200v100h-100v600z" />
    <glyph glyph-name="Uring" unicode="&#x16e;" 
d="M200 1200h300v-100h-300v100zM100 1100h100v-100h-100v100zM500 1100h100v-100h-100v100zM200 1000h300v-100h-300v100zM0 900h200v-800h300v800h200v-800h-100v-100h-500v100h-100v800z" />
    <glyph glyph-name="uring" unicode="&#x16f;" 
d="M200 1100h200v-100h-200v100zM100 1000h100v-100h-100v100zM400 1000h100v-100h-100v100zM200 900h200v-100h-200v100zM0 700h200v-600h200v-100h-300v100h-100v600zM400 700h200v-600h100v-100h-200v100h-100v600z" />
    <glyph glyph-name="Ydieresis" unicode="&#x178;" 
d="M100 1200h200v-200h-200v200zM500 1200h200v-200h-200v200zM100 900h200v-400h200v400h200v-400h-100v-100h-100v-300h100v-100h-400v100h100v300h-100v100h-100v400z" />
    <glyph glyph-name="Zcaron" unicode="&#x17d;" 
d="M100 1200h200v-100h100v100h200v-100h-100v-100h-100v-100h300v-200h-100v-100h-100v-100h-100v-100h-100v-100h-100v-200h300v100h100v100h100v-300h-700v300h100v100h100v100h100v100h100v100h100v100h-300v-100h-100v-100h-100v300h300v100h-100v100h-100v100z" />
    <glyph glyph-name="zcaron" unicode="&#x17e;" 
d="M100 1100h200v-100h200v100h200v-100h-100v-100h-100v-100h-200v100h-100v100h-100v100zM0 700h700v-100h-100v-100h-100v-100h-100v-100h-100v-100h-100v-100h400v100h100v-200h-700v200h100v100h100v100h100v100h100v100h-300v-100h-100v200z" />
    <glyph glyph-name="florin" unicode="&#x192;" 
d="M400 1000h300v-100h100v-100h-200v100h-100v-300h200v-100h-200v-700h-100v-100h-300v100h-100v100h200v-100h100v700h-200v100h200v300h100v100z" />
    <glyph glyph-name="circumflex" unicode="&#x2c6;" 
d="M300 1100h200v-100h100v-100h100v-100h-200v100h-200v-100h-200v100h100v100h100v100z" />
    <glyph glyph-name="caron" unicode="&#x2c7;" 
d="M100 1100h200v-100h200v100h200v-100h-100v-100h-100v-100h-200v100h-100v100h-100v100z" />
    <glyph glyph-name="breve" unicode="&#x2d8;" 
d="M100 1100h200v-100h200v100h200v-100h-100v-100h-400v100h-100v100z" />
    <glyph glyph-name="ring" unicode="&#x2da;" 
d="M300 1100h200v-100h-200v100zM200 1000h100v-100h-100v100zM500 1000h100v-100h-100v100zM300 900h200v-100h-200v100z" />
    <glyph glyph-name="tilde" unicode="&#x2dc;" 
d="M100 1000h300v-100h100v100h200v-100h-100v-100h-300v100h-100v-100h-200v100h100v100z" />
    <glyph glyph-name="Gamma" unicode="&#x393;" 
d="M0 1000h700v-200h-100v100h-300v-800h100v-100h-400v100h100v800h-100v100z" />
    <glyph glyph-name="Theta" unicode="&#x398;" 
d="M500 800h-300v-300h300v300zM500 400h-300v-300h300v300zM100 900h500v-100h100v-700h-100v-100h-500v100h-100v700h100v100z" />
    <glyph glyph-name="Sigma" unicode="&#x3a3;" 
d="M0 1000h700v-200h-100v100h-400v-100h100v-100h100v-100h100v-100h-100v-100h-100v-100h-100v-200h400v100h100v-200h-700v300h100v100h100v100h100v100h-100v100h-100v100h-100v200z" />
    <glyph glyph-name="Phi" unicode="&#x3a6;" 
d="M300 700h-100v-400h100v400zM500 700h-100v-400h100v400zM200 1000h300v-100h-100v-100h200v-100h100v-400h-100v-100h-200v-100h100v-100h-300v100h100v100h-200v100h-100v400h100v100h200v100h-100v100z" />
    <glyph glyph-name="uni03A9" unicode="&#x3a9;" 
d="M100 1000h500v-100h100v-500h-100v-100h-100v-200h200v-100h-300v400h100v500h-300v-500h100v-400h-300v100h200v200h-100v100h-100v500h100v100z" />
    <glyph glyph-name="alpha" unicode="&#x3b1;" 
d="M300 600h-100v-500h100v100h100v300h-100v100zM100 700h300v-100h100v100h100v-200h-100v-300h100v-100h100v-100h-200v100h-100v-100h-300v100h-100v500h100v100z" />
    <glyph glyph-name="delta" unicode="&#x3b4;" 
d="M400 500h-200v-400h200v400zM200 1000h400v-100h-300v-100h100v-100h100v-100h100v-500h-100v-100h-400v100h-100v400h100v100h200v100h-100v100h-100v100h100v100zM600 900h100v-100h-100v100z" />
    <glyph glyph-name="epsilon" unicode="&#x3b5;" 
d="M200 700h400v-100h-300v-100h-100v-100h300v-100h-300v-100h100v-100h300v-100h-400v100h-100v100h-100v300h100v100h100v100z" />
    <glyph glyph-name="pi" unicode="&#x3c0;" 
d="M100 700h500v100h100v-200h-100v-500h-100v-100h-100v600h-100v-500h-100v-100h-100v500h-100v100h100v100z" />
    <glyph glyph-name="sigma" unicode="&#x3c3;" 
d="M100 700h600v-100h-300v-100h-100v100h-100v-500h200v-100h-300v100h-100v500h100v100zM400 500h100v-400h-100v400z" />
    <glyph glyph-name="tau" unicode="&#x3c4;" 
d="M100 700h600v-100h-200v-500h-100v-100h-100v600h-100v-100h-200v100h100v100z" />
    <glyph glyph-name="phi" unicode="&#x3c6;" 
d="M400 600h-200v-300h100v200h100v100zM500 400h-100v-200h-100v-100h200v300zM600 900h100v-200h-100v-100h100v-500h-100v-100h-400v-100h-100v-100h-100v200h100v100h-100v500h100v100h400v100h100v100z" />
    <glyph glyph-name="endash" unicode="&#x2013;" 
d="M0 500h700v-100h-700v100z" />
    <glyph glyph-name="emdash" unicode="&#x2014;" 
d="M0 500h700v-100h-700v100z" />
    <glyph glyph-name="quoteleft" unicode="&#x2018;" 
d="M400 1100h100v-100h-100v100zM300 1000h100v-100h100v-200h-200v300z" />
    <glyph glyph-name="quoteright" unicode="&#x2019;" 
d="M300 1100h200v-300h-100v100h-100v200zM300 800h100v-100h-100v100z" />
    <glyph glyph-name="quotesinglbase" unicode="&#x201a;" 
d="M300 200h200v-300h-100v100h-100v200zM300 -100h100v-100h-100v100z" />
    <glyph glyph-name="quotedblleft" unicode="&#x201c;" 
d="M200 1100h100v-100h-100v100zM100 1000h100v-100h100v-200h-200v300zM500 1100h100v-100h-100v100zM400 1000h100v-100h100v-200h-200v300z" />
    <glyph glyph-name="quotedblright" unicode="&#x201d;" 
d="M100 1100h200v-300h-100v100h-100v200zM100 800h100v-100h-100v100zM400 1100h200v-300h-100v100h-100v200zM400 800h100v-100h-100v100z" />
    <glyph glyph-name="quotedblbase" unicode="&#x201e;" 
d="M100 200h200v-300h-100v100h-100v200zM100 -100h100v-100h-100v100zM400 200h200v-300h-100v100h-100v200zM400 -100h100v-100h-100v100z" />
    <glyph glyph-name="dagger" unicode="&#x2020;" 
d="M300 1000h200v-300h200v-100h-200v-600h-200v600h-200v100h200v300z" />
    <glyph glyph-name="daggerdbl" unicode="&#x2021;" 
d="M300 1000h200v-300h200v-100h-200v-200h200v-100h-200v-300h-200v300h-200v100h200v200h-200v100h200v300z" />
    <glyph glyph-name="bullet" unicode="&#x2022;" 
d="M300 600h200v-100h100v-200h-100v-100h-200v100h-100v200h100v100z" />
    <glyph glyph-name="ellipsis" unicode="&#x2026;" 
d="M0 200h200v-200h-200v200zM300 200h200v-200h-200v200zM600 200h200v-200h-200v200z" />
    <glyph glyph-name="perthousand" unicode="&#x2030;" 
d="M100 1000h100v-100h-100v100zM0 900h100v-200h-100v200zM200 900h100v-200h-100v200zM100 700h100v-100h-100v100zM500 800h100v-100h-100v100zM400 700h100v-100h-100v100zM300 600h100v-100h-100v100zM200 500h100v-100h-100v100zM100 400h100v-100h-100v100zM0 300
h100v-100h-100v100zM300 400h100v-100h-100v100zM500 400h100v-100h-100v100zM200 300h100v-200h-100v200zM400 300h100v-200h-100v200zM600 300h100v-200h-100v200zM300 100h100v-100h-100v100zM500 100h100v-100h-100v100z" />
    <glyph glyph-name="guilsinglleft" unicode="&#x2039;" 
d="M400 700h200v-100h-100v-100h-100v-100h100v-100h100v-100h-200v100h-100v100h-100v100h100v100h100v100z" />
    <glyph glyph-name="guilsinglright" unicode="&#x203a;" 
d="M200 700h200v-100h100v-100h100v-100h-100v-100h-100v-100h-200v100h100v100h100v100h-100v100h-100v100z" />
    <glyph glyph-name="exclamdbl" unicode="&#x203c;" 
d="M100 1000h200v-700h-200v700zM100 200h200v-200h-200v200zM500 1000h200v-700h-200v700zM500 200h200v-200h-200v200z" />
    <glyph glyph-name="uni207F" unicode="&#x207f;" 
d="M0 1100h200v-100h100v-400h-200v400h-100v100zM300 1100h200v-100h100v-400h-200v400h-100v100z" />
    <glyph glyph-name="peseta" unicode="&#x20a7;" 
d="M400 900h-200v-200h200v200zM0 1000h500v-100h100v-200h-100v-100h-300v-600h-200v1000zM500 600h100v-200h100v-100h-100v-200h100v-100h-200v100h-100v200h-100v100h100v100h100v100z" />
    <glyph glyph-name="Euro" unicode="&#x20ac;" 
d="M200 1000h400v-100h100v-200h-200v200h-200v-200h200v-100h-200v-200h100v-100h-100v-200h200v200h200v-200h-100v-100h-400v100h-100v200h-100v100h100v200h-100v100h100v200h100v100z" />
    <glyph glyph-name="uni20B1" unicode="&#x20b1;" 
d="M500 900h-200v-100h200v100zM500 700h-200v-100h200v100zM0 1000h600v-100h100v-100h100v-100h-100v-100h-100v-100h-300v-400h100v-100h-400v100h100v600h-100v100h100v100h-100v100z" />
    <glyph glyph-name="uni20B7" unicode="&#x20b7;" 
d="M100 1000h500v-100h100v-200h-200v200h-300v-200h100v-100h200v-100h100v-100h100v-300h-100v-100h-600v400h200v-100h-100v-200h100v200h100v-200h100v200h100v100h-100v100h-200v100h-100v100h-100v200h100v100zM300 400h100v-100h-100v100z" />
    <glyph glyph-name="uni2117" unicode="&#x2117;" 
d="M200 700h300v-100h-199l-1 -100h200v-100h-200v-200h-100v500zM500 600h100v-100h-100v100zM200 900h400v-100h-400v100zM100 800h100v-100h-100v100zM600 800h100v-100h-100v100zM0 700h100v-500h-100v500zM700 700h100v-500h-100v500zM100 200h100v-100h-100v100z
M600 200h100v-100h-100v100zM200 100h400v-100h-400v100z" />
    <glyph glyph-name="trademark" unicode="&#x2122;" 
d="M0 1000h400v-100h100v-100h-100v-300h-100v400h-100v-400h-100v400h-100v100zM700 1000h100v-500h-100v300h-100v100h100v100zM500 800h100v-200h-100v200z" />
    <glyph glyph-name="arrowleft" unicode="&#x2190;" 
d="M300 800h100v-200h-100v-100h400v-100h-400v-100h100v-200h-100v100h-100v100h-100v100h-100v100h100v100h100v100h100v100z" />
    <glyph glyph-name="arrowup" unicode="&#x2191;" 
d="M300 1000h100v-100h100v-100h100v-100h100v-100h-200v100h-100v-700h-100v700h-100v-100h-200v100h100v100h100v100h100v100z" />
    <glyph glyph-name="arrowright" unicode="&#x2192;" 
d="M300 800h100v-100h100v-100h100v-100h100v-100h-100v-100h-100v-100h-100v-100h-100v200h100v100h-400v100h400v100h-100v200z" />
    <glyph glyph-name="arrowdown" unicode="&#x2193;" 
d="M300 1000h100v-700h100v100h200v-100h-100v-100h-100v-100h-100v-100h-100v100h-100v100h-100v100h-100v100h200v-100h100v700z" />
    <glyph glyph-name="arrowboth" unicode="&#x2194;" 
d="M200 700h100v-100h-100v100zM500 700h100v-100h-100v100zM100 600h100v-100h400v100h100v-100h100v-100h-100v-100h-100v100h-400v-100h-100v100h-100v100h100v100zM200 300h100v-100h-100v100zM500 300h100v-100h-100v100z" />
    <glyph glyph-name="arrowupdn" unicode="&#x2195;" 
d="M300 1000h100v-100h100v-100h100v-100h100v-100h-200v100h-100v-400h100v100h200v-100h-100v-100h-100v-100h-100v-100h-100v100h-100v100h-100v100h-100v100h200v-100h100v400h-100v-100h-200v100h100v100h100v100h100v100z" />
    <glyph glyph-name="arrowupdnbse" unicode="&#x21a8;" 
d="M300 1000h100v-100h100v-100h100v-100h100v-100h-200v100h-100v-400h100v100h200v-100h-100v-100h-100v-100h-100v-100h300v-100h-700v100h300v100h-100v100h-100v100h-100v100h200v-100h100v400h-100v-100h-200v100h100v100h100v100h100v100z" />
    <glyph glyph-name="uni2219" unicode="&#x2219;" 
d="M200 500h200v-200h-200v200z" />
    <glyph glyph-name="radical" unicode="&#x221a;" 
d="M400 1100h400v-100h-200v-1000h-300v100h-100v100h-100v200h-100v100h300v-300h100v900z" />
    <glyph glyph-name="infinity" unicode="&#x221e;" 
d="M100 700h200v-100h-100v-300h100v300h100v100h300v-100h100v-300h-100v-100h-200v100h100v300h-100v-300h-100v-100h-300v100h-100v300h100v100z" />
    <glyph glyph-name="orthogonal" unicode="&#x221f;" 
d="M0 600h200v-300h500v-100h-700v400z" />
    <glyph glyph-name="intersection" unicode="&#x2229;" 
d="M100 1000h500v-100h100v-900h-200v900h-300v-900h-200v900h100v100z" />
    <glyph glyph-name="approxequal" unicode="&#x2248;" 
d="M100 700h300v-100h100v100h200v-100h-100v-100h-300v100h-100v-100h-200v100h100v100zM100 400h300v-100h100v100h200v-100h-100v-100h-300v100h-100v-100h-200v100h100v100z" />
    <glyph glyph-name="equivalence" unicode="&#x2261;" 
d="M0 800h700v-100h-700v100zM0 500h700v-100h-700v100zM0 200h700v-100h-700v100z" />
    <glyph glyph-name="lessequal" unicode="&#x2264;" 
d="M400 900h200v-100h-100v-100h-100v-100h-100v-100h100v-100h100v-100h100v-100h-200v100h-100v100h-100v100h-100v100h100v100h100v100h100v100zM0 100h700v-100h-700v100z" />
    <glyph glyph-name="greaterequal" unicode="&#x2265;" 
d="M100 900h200v-100h100v-100h100v-100h100v-100h-100v-100h-100v-100h-100v-100h-200v100h100v100h100v100h100v100h-100v100h-100v100h-100v100zM0 100h700v-100h-700v100z" />
    <glyph glyph-name="house" unicode="&#x2302;" 
d="M400 600h-100v-100h-100v-300h300v300h-100v100zM300 800h100v-100h100v-100h100v-100h100v-400h-700v400h100v100h100v100h100v100z" />
    <glyph glyph-name="revlogicalnot" unicode="&#x2310;" 
d="M0 500h700v-100h-500v-300h-200v400z" />
    <glyph glyph-name="integraltp" unicode="&#x2320;" 
d="M400 1000h300v-100h100v-200h-200v200h-100v-1300h-200v1300h100v100z" />
    <glyph glyph-name="integralbt" unicode="&#x2321;" 
d="M300 1200h200v-1100h-100v-100h-300v100h-100v200h200v-200h100v1100z" />
    <glyph glyph-name="SF100000" unicode="&#x2500;" 
d="M0 500h800v-100h-800v100z" />
    <glyph glyph-name="SF110000" unicode="&#x2502;" 
d="M300 1200h200v-1600h-200v1600z" />
    <glyph glyph-name="SF010000" unicode="&#x250c;" 
d="M300 500h500v-100h-300v-800h-200v900z" />
    <glyph glyph-name="SF030000" unicode="&#x2510;" 
d="M0 500h500v-900h-200v800h-300v100z" />
    <glyph glyph-name="SF020000" unicode="&#x2514;" 
d="M300 1200h200v-700h300v-100h-500v800z" />
    <glyph glyph-name="SF040000" unicode="&#x2518;" 
d="M300 1200h200v-800h-500v100h300v700z" />
    <glyph glyph-name="SF080000" unicode="&#x251c;" 
d="M300 1200h200v-700h300v-100h-300v-800h-200v1600z" />
    <glyph glyph-name="SF090000" unicode="&#x2524;" 
d="M300 1200h200v-1600h-200v800h-300v100h300v700z" />
    <glyph glyph-name="SF060000" unicode="&#x252c;" 
d="M0 500h800v-100h-300v-800h-200v800h-300v100z" />
    <glyph glyph-name="SF070000" unicode="&#x2534;" 
d="M300 1200h200v-700h300v-100h-800v100h300v700z" />
    <glyph glyph-name="SF050000" unicode="&#x253c;" 
d="M300 1200h200v-700h300v-100h-300v-800h-200v800h-300v100h300v700z" />
    <glyph glyph-name="SF430000" unicode="&#x2550;" 
d="M0 700h800v-100h-800v100zM0 500h800v-100h-800v100z" />
    <glyph glyph-name="SF240000" unicode="&#x2551;" 
d="M200 1200h200v-1600h-200v1600zM500 1200h200v-1600h-200v1600z" />
    <glyph glyph-name="SF510000" unicode="&#x2552;" 
d="M300 700h500v-100h-300v-100h300v-100h-300v-800h-200v1100z" />
    <glyph glyph-name="SF520000" unicode="&#x2553;" 
d="M200 500h600v-100h-100v-800h-200v800h-100v-800h-200v900z" />
    <glyph glyph-name="SF390000" unicode="&#x2554;" 
d="M200 700h600v-100h-400v-1000h-200v1100zM500 500h300v-100h-100v-800h-200v900z" />
    <glyph glyph-name="SF220000" unicode="&#x2555;" 
d="M0 700h500v-1100h-200v800h-300v100h300v100h-300v100z" />
    <glyph glyph-name="SF210000" unicode="&#x2556;" 
d="M0 500h700v-900h-200v800h-100v-800h-200v800h-200v100z" />
    <glyph glyph-name="SF250000" unicode="&#x2557;" 
d="M0 700h700v-1100h-200v1000h-500v100zM0 500h400v-900h-200v800h-200v100z" />
    <glyph glyph-name="SF500000" unicode="&#x2558;" 
d="M300 1200h200v-500h300v-100h-300v-100h300v-100h-500v800z" />
    <glyph glyph-name="SF490000" unicode="&#x2559;" 
d="M200 1200h200v-700h100v700h200v-700h100v-100h-600v800z" />
    <glyph glyph-name="SF380000" unicode="&#x255a;" 
d="M200 1200h200v-700h400v-100h-600v800zM500 1200h200v-500h100v-100h-300v600z" />
    <glyph glyph-name="SF280000" unicode="&#x255b;" 
d="M300 1200h200v-800h-500v100h300v100h-300v100h300v500z" />
    <glyph glyph-name="SF270000" unicode="&#x255c;" 
d="M200 1200h200v-700h100v700h200v-800h-700v100h200v700z" />
    <glyph glyph-name="SF260000" unicode="&#x255d;" 
d="M200 1200h200v-600h-400v100h200v500zM500 1200h200v-800h-700v100h500v700z" />
    <glyph glyph-name="SF360000" unicode="&#x255e;" 
d="M300 1200h200v-500h300v-100h-300v-100h300v-100h-300v-800h-200v1600z" />
    <glyph glyph-name="SF370000" unicode="&#x255f;" 
d="M200 1200h200v-1600h-200v1600zM500 1200h200v-700h100v-100h-100v-800h-200v1600z" />
    <glyph glyph-name="SF420000" unicode="&#x2560;" 
d="M200 1200h200v-1600h-200v1600zM500 1200h200v-500h100v-100h-300v600zM500 500h300v-100h-100v-800h-200v900z" />
    <glyph glyph-name="SF190000" unicode="&#x2561;" 
d="M300 1200h200v-1600h-200v800h-300v100h300v100h-300v100h300v500z" />
    <glyph glyph-name="SF200000" unicode="&#x2562;" 
d="M200 1200h200v-1600h-200v800h-200v100h200v700zM500 1200h200v-1600h-200v1600z" />
    <glyph glyph-name="SF230000" unicode="&#x2563;" 
d="M200 1200h200v-600h-400v100h200v500zM500 1200h200v-1600h-200v1600zM0 500h400v-900h-200v800h-200v100z" />
    <glyph glyph-name="SF470000" unicode="&#x2564;" 
d="M0 700h800v-100h-800v100zM0 500h800v-100h-300v-800h-200v800h-300v100z" />
    <glyph glyph-name="SF480000" unicode="&#x2565;" 
d="M0 500h800v-100h-100v-800h-200v800h-100v-800h-200v800h-200v100z" />
    <glyph glyph-name="SF410000" unicode="&#x2566;" 
d="M0 700h800v-100h-800v100zM0 500h400v-900h-200v800h-200v100zM500 500h300v-100h-100v-800h-200v900z" />
    <glyph glyph-name="SF450000" unicode="&#x2567;" 
d="M300 1200h200v-500h300v-100h-800v100h300v500zM0 500h800v-100h-800v100z" />
    <glyph glyph-name="SF460000" unicode="&#x2568;" 
d="M200 1200h200v-700h100v700h200v-700h100v-100h-800v100h200v700z" />
    <glyph glyph-name="SF400000" unicode="&#x2569;" 
d="M200 1200h200v-600h-400v100h200v500zM500 1200h200v-500h100v-100h-300v600zM0 500h800v-100h-800v100z" />
    <glyph glyph-name="SF540000" unicode="&#x256a;" 
d="M300 1200h200v-500h300v-100h-300v-100h300v-100h-300v-800h-200v800h-300v100h300v100h-300v100h300v500z" />
    <glyph glyph-name="SF530000" unicode="&#x256b;" 
d="M200 1200h200v-700h100v700h200v-700h100v-100h-100v-800h-200v800h-100v-800h-200v800h-200v100h200v700z" />
    <glyph glyph-name="SF440000" unicode="&#x256c;" 
d="M200 1200h200v-600h-400v100h200v500zM500 1200h200v-500h100v-100h-300v600zM0 500h400v-900h-200v800h-200v100zM500 500h300v-100h-100v-800h-200v900z" />
    <glyph glyph-name="upblock" unicode="&#x2580;" 
d="M0 1200h800v-800h-800v800z" />
    <glyph glyph-name="dnblock" unicode="&#x2584;" 
d="M0 500h800v-900h-800v900z" />
    <glyph glyph-name="block" unicode="&#x2588;" 
d="M0 1200h800v-1600h-800v1600z" />
    <glyph glyph-name="lfblock" unicode="&#x258c;" 
d="M0 1200h400v-1600h-400v1600z" />
    <glyph glyph-name="rtblock" unicode="&#x2590;" 
d="M400 1200h400v-1600h-400v1600z" />
    <glyph glyph-name="ltshade" unicode="&#x2591;" 
d="M200 1200h100v-100h-100v100zM600 1200h100v-100h-100v100zM0 1100h100v-100h-100v100zM400 1100h100v-100h-100v100zM200 1000h100v-100h-100v100zM600 1000h100v-100h-100v100zM0 900h100v-100h-100v100zM400 900h100v-100h-100v100zM200 800h100v-100h-100v100z
M600 800h100v-100h-100v100zM0 700h100v-100h-100v100zM400 700h100v-100h-100v100zM200 600h100v-100h-100v100zM600 600h100v-100h-100v100zM0 500h100v-100h-100v100zM400 500h100v-100h-100v100zM200 400h100v-100h-100v100zM600 400h100v-100h-100v100zM0 300h100v-100
h-100v100zM400 300h100v-100h-100v100zM200 200h100v-100h-100v100zM600 200h100v-100h-100v100zM0 100h100v-100h-100v100zM400 100h100v-100h-100v100zM200 0h100v-100h-100v100zM600 0h100v-100h-100v100zM0 -100h100v-100h-100v100zM400 -100h100v-100h-100v100z
M200 -200h100v-100h-100v100zM600 -200h100v-100h-100v100zM0 -300h100v-100h-100v100zM400 -300h100v-100h-100v100z" />
    <glyph glyph-name="shade" unicode="&#x2592;" 
d="M100 1200h100v-100h-100v100zM300 1200h100v-100h-100v100zM500 1200h100v-100h-100v100zM700 1200h100v-100h-100v100zM0 1100h100v-100h-100v100zM200 1100h100v-100h-100v100zM400 1100h100v-100h-100v100zM600 1100h100v-100h-100v100zM100 1000h100v-100h-100v100z
M300 1000h100v-100h-100v100zM500 1000h100v-100h-100v100zM700 1000h100v-100h-100v100zM0 900h100v-100h-100v100zM200 900h100v-100h-100v100zM400 900h100v-100h-100v100zM600 900h100v-100h-100v100zM100 800h100v-100h-100v100zM300 800h100v-100h-100v100zM500 800
h100v-100h-100v100zM700 800h100v-100h-100v100zM0 700h100v-100h-100v100zM200 700h100v-100h-100v100zM400 700h100v-100h-100v100zM600 700h100v-100h-100v100zM100 600h100v-100h-100v100zM300 600h100v-100h-100v100zM500 600h100v-100h-100v100zM700 600h100v-100
h-100v100zM0 500h100v-100h-100v100zM200 500h100v-100h-100v100zM400 500h100v-100h-100v100zM600 500h100v-100h-100v100zM100 400h100v-100h-100v100zM300 400h100v-100h-100v100zM500 400h100v-100h-100v100zM700 400h100v-100h-100v100zM0 300h100v-100h-100v100z
M200 300h100v-100h-100v100zM400 300h100v-100h-100v100zM600 300h100v-100h-100v100zM100 200h100v-100h-100v100zM300 200h100v-100h-100v100zM500 200h100v-100h-100v100zM700 200h100v-100h-100v100zM0 100h100v-100h-100v100zM200 100h100v-100h-100v100zM400 100h100
v-100h-100v100zM600 100h100v-100h-100v100zM100 0h100v-100h-100v100zM300 0h100v-100h-100v100zM500 0h100v-100h-100v100zM700 0h100v-100h-100v100zM0 -100h100v-100h-100v100zM200 -100h100v-100h-100v100zM400 -100h100v-100h-100v100zM600 -100h100v-100h-100v100z
M100 -200h100v-100h-100v100zM300 -200h100v-100h-100v100zM500 -200h100v-100h-100v100zM700 -200h100v-100h-100v100zM0 -300h100v-100h-100v100zM200 -300h100v-100h-100v100zM400 -300h100v-100h-100v100zM600 -300h100v-100h-100v100z" />
    <glyph glyph-name="dkshade" unicode="&#x2593;" 
d="M500 1100h-100v-100h100v100zM300 1000h-100v-100h100v100zM700 1000h-100v-100h100v100zM500 900h-100v-100h100v100zM300 800h-100v-100h100v100zM700 800h-100v-100h100v100zM500 700h-100v-100h100v100zM300 600h-100v-100h100v100zM700 600h-100v-100h100v100z
M500 500h-100v-100h100v100zM300 400h-100v-100h100v100zM700 400h-100v-100h100v100zM500 300h-100v-100h100v100zM300 200h-100v-100h100v100zM700 200h-100v-100h100v100zM500 100h-100v-100h100v100zM300 0h-100v-100h100v100zM700 0h-100v-100h100v100zM500 -100h-100
v-100h100v100zM300 -200h-100v-100h100v100zM700 -200h-100v-100h100v100zM0 1200h200v-100h100v100h300v-100h100v100h100v-1600h-400v100h100v-100h-400v100h-100v100h100v100h-100v100h100v100h-100v100h100v100h-100v100h100v100h-100v100h100v100h-100v100h100v100
h-100v100h100v100h-100v100z" />
    <glyph glyph-name="filledbox" unicode="&#x25a0;" 
d="M100 800h500v-700h-500v700z" />
    <glyph glyph-name="filledrect" unicode="&#x25ac;" 
d="M0 400h700v-400h-700v400z" />
    <glyph glyph-name="triagup" unicode="&#x25b2;" 
d="M300 800h100v-100h100v-200h100v-200h100v-200h-700v200h100v200h100v200h100v100z" />
    <glyph glyph-name="triagrt" unicode="&#x25ba;" 
d="M0 900h100v-100h100v-100h100v-100h200v-100h200v-100h-200v-100h-200v-100h-100v-100h-100v-100h-100v900z" />
    <glyph glyph-name="triagdn" unicode="&#x25bc;" 
d="M0 800h700v-200h-100v-200h-100v-200h-100v-100h-100v100h-100v200h-100v200h-100v200z" />
    <glyph glyph-name="triaglf" unicode="&#x25c4;" 
d="M600 900h100v-900h-100v100h-100v100h-100v100h-200v100h-200v100h200v100h200v100h100v100h100v100z" />
    <glyph glyph-name="circle" unicode="&#x25cb;" 
d="M500 600h-200v-100h-100v-200h100v-100h200v100h100v200h-100v100zM200 700h400v-100h100v-400h-100v-100h-400v100h-100v400h100v100z" />
    <glyph glyph-name="invbullet" unicode="&#x25d8;" 
d="M500 600h-200v-100h-100v-200h100v-100h200v100h100v200h-100v100zM0 1200h800v-1600h-800v1600z" />
    <glyph glyph-name="invcircle" unicode="&#x25d9;" 
d="M300 600h200v-100h100v-200h-100v-100h-200v100h-100v200h100v100zM600 700h-400v-100h-100v-400h100v-100h400v100h100v400h-100v100zM0 1200h800v-1600h-800v1600z" />
    <glyph glyph-name="smileface" unicode="&#x263a;" 
d="M100 1000h600v-100h-600v100zM0 900h100v-800h-100v800zM700 900h100v-800h-100v800zM200 800h100v-100h-100v100zM500 800h100v-100h-100v100zM200 500h400v-100h-100v-100h-200v100h-100v100zM100 100h600v-100h-600v100z" />
    <glyph glyph-name="invsmileface" unicode="&#x263b;" 
d="M300 800h-100v-100h100v100zM600 800h-100v-100h100v100zM600 500h-400v-100h100v-100h200v100h100v100zM100 1000h600v-100h100v-800h-100v-100h-600v100h-100v800h100v100z" />
    <glyph glyph-name="sun" unicode="&#x263c;" 
d="M400 600h-100v-100h-100v-100h100v-100h100v100h100v100h-100v100zM300 900h100v-200h200v-200h100v-100h-100v-200h-200v-200h-100v200h-200v200h-100v100h100v200h200v200zM0 800h100v-100h-100v100zM600 800h100v-100h-100v100zM0 200h100v-100h-100v100zM600 200h100
v-100h-100v100z" />
    <glyph glyph-name="female" unicode="&#x2640;" 
d="M500 900h-200v-400h200v400zM200 1000h400v-100h100v-400h-100v-100h-100v-100h200v-100h-200v-200h-200v200h-200v100h200v100h-100v100h-100v400h100v100z" />
    <glyph glyph-name="male" unicode="&#x2642;" 
d="M400 500h-200v-400h200v400zM300 1000h400v-300h-100v100h-100v-100h-100v-100h100v-100h100v-400h-100v-100h-400v100h-100v400h100v100h100v100h100v100h100v100h-100v100z" />
    <glyph glyph-name="spade" unicode="&#x2660;" 
d="M300 900h100v-100h100v-100h100v-100h100v-300h-100v-100h-100v100h-100v100h-100v-100h-100v-100h-100v100h-100v300h100v100h100v100h100v100zM300 300h100v-200h100v-100h-300v100h100v200z" />
    <glyph glyph-name="club" unicode="&#x2663;" 
d="M300 900h200v-100h100v-200h-100v-100h100v100h100v-100h100v-200h-100v-100h-100v100h-100v-200h100v-100h-400v100h100v200h-100v-100h-100v100h-100v200h100v100h100v-100h100v100h-100v200h100v100z" />
    <glyph glyph-name="heart" unicode="&#x2665;" 
d="M100 800h200v-200h100v200h200v-100h100v-400h-100v-100h-100v-100h-100v-100h-100v100h-100v100h-100v100h-100v400h100v100z" />
    <glyph glyph-name="diamond" unicode="&#x2666;" 
d="M300 800h100v-100h100v-100h100v-100h100v-200h-100v-100h-100v-100h-100v-100h-100v100h-100v100h-100v100h-100v200h100v100h100v100h100v100z" />
    <glyph glyph-name="musicalnote" unicode="&#x266a;" 
d="M400 1100h100v-100h100v-100h-100v-800h-100v-100h-300v100h-100v100h100v100h300v800zM600 900h100v-300h-100v300z" />
    <glyph glyph-name="musicalnotedbl" unicode="&#x266b;" 
d="M300 1100h100v-100h100v-100h-100v-200h100v-100h-100v-500h-100v-100h-200v100h-100v100h100v100h200v800zM500 900h100v-100h-100v100zM600 800h100v-1000h-100v-100h-300v200h100v100h200v500h-100v100h100v200z" />
    <glyph glyph-name="uniE0A0" unicode="&#xe0a0;" 
d="M0 1200h200v-1000h-100v-100h-100v1100zM490 900h110v-100h100v-100h100v-200h-100v100h-100v-300h-100v-100h-100v-100h-100v-100h-100v-400h-200v400h100v100h100v100h100v100h100v100h100v200h-100v-100h-100v200h100v100h90v100z" />
    <glyph glyph-name="uniE0A1" unicode="&#xe0a1;" 
d="M0 1000h200v-400h300v-100h-500v500zM200 400h200v-100h100v-100h100v200h100v-500h-100v100h-100v100h-100v-200h-200v500z" />
    <glyph glyph-name="uniE0A2" unicode="&#xe0a2;" 
d="M200 1000h300v-100h-300v100zM100 900h100v-400h300v400h100v-400h100v-500h-700v500h100v400z" />
    <glyph glyph-name="uniE0A3" unicode="&#xe0a3;" 
d="M100 1000h300v-100h-200v-300h200v-100h-300v100h-100v300h100v100zM400 900h100v-100h-100v100zM400 700h100v-100h-100v100zM200 400h200v-100h100v-100h100v200h100v-500h-100v100h-100v100h-100v-200h-200v500z" />
    <glyph glyph-name="uniE0B0" unicode="&#xe0b0;" 
d="M0 1200h100v-100h100v-100h100v-100h100v-100h100v-100h100v-100h100v-100h100v-200h-100v-100h-100v-100h-100v-100h-100v-100h-100v-100h-100v-100h-100v-100h-100v1600z" />
    <glyph glyph-name="uniE0B1" unicode="&#xe0b1;" 
d="M0 1200h100v-100h-100v100zM100 1100h100v-100h-100v100zM200 1000h100v-100h-100v100zM300 900h100v-100h-100v100zM400 800h100v-100h-100v100zM500 700h100v-100h-100v100zM600 600h100v-100h-100v100zM700 500h100v-200h-100v200zM600 300h100v-100h-100v100z
M500 200h100v-100h-100v100zM400 100h100v-100h-100v100zM300 0h100v-100h-100v100zM200 -100h100v-100h-100v100zM100 -200h100v-100h-100v100zM0 -300h100v-100h-100v100z" />
    <glyph glyph-name="uniE0B2" unicode="&#xe0b2;" 
d="M700 1200h100v-1600h-100v100h-100v100h-100v100h-100v100h-100v100h-100v100h-100v100h-100v200h100v100h100v100h100v100h100v100h100v100h100v100h100v100z" />
    <glyph glyph-name="uniE0B3" unicode="&#xe0b3;" 
d="M700 1200h100v-100h-100v100zM600 1100h100v-100h-100v100zM500 1000h100v-100h-100v100zM400 900h100v-100h-100v100zM300 800h100v-100h-100v100zM200 700h100v-100h-100v100zM100 600h100v-100h-100v100zM0 500h100v-200h-100v200zM100 300h100v-100h-100v100z
M200 200h100v-100h-100v100zM300 100h100v-100h-100v100zM400 0h100v-100h-100v100zM500 -100h100v-100h-100v100zM600 -200h100v-100h-100v100zM700 -300h100v-100h-100v100z" />
  </font>
</defs>
</svg>
